<svg id="my-svg" width="100%" xmlns="http://www.w3.org/2000/svg" xmlns:xlink="http://www.w3.org/1999/xlink" class="classDiagram" style="max-width: 187.164px; background-color: white;" viewBox="0 0 187.1640625 560" role="graphics-document document" aria-roledescription="class"><style>#my-svg{font-family:"trebuchet ms",verdana,arial,sans-serif;font-size:16px;fill:#333;}@keyframes edge-animation-frame{from{stroke-dashoffset:0;}}@keyframes dash{to{stroke-dashoffset:0;}}#my-svg .edge-animation-slow{stroke-dasharray:9,5!important;stroke-dashoffset:900;animation:dash 50s linear infinite;stroke-linecap:round;}#my-svg .edge-animation-fast{stroke-dasharray:9,5!important;stroke-dashoffset:900;animation:dash 20s linear infinite;stroke-linecap:round;}#my-svg .error-icon{fill:#552222;}#my-svg .error-text{fill:#552222;stroke:#552222;}#my-svg .edge-thickness-normal{stroke-width:1px;}#my-svg .edge-thickness-thick{stroke-width:3.5px;}#my-svg .edge-pattern-solid{stroke-dasharray:0;}#my-svg .edge-thickness-invisible{stroke-width:0;fill:none;}#my-svg .edge-pattern-dashed{stroke-dasharray:3;}#my-svg .edge-pattern-dotted{stroke-dasharray:2;}#my-svg .marker{fill:#333333;stroke:#333333;}#my-svg .marker.cross{stroke:#333333;}#my-svg svg{font-family:"trebuchet ms",verdana,arial,sans-serif;font-size:16px;}#my-svg p{margin:0;}#my-svg g.classGroup text{fill:#9370DB;stroke:none;font-family:"trebuchet ms",verdana,arial,sans-serif;font-size:10px;}#my-svg g.classGroup text .title{font-weight:bolder;}#my-svg .cluster-label text{fill:#333;}#my-svg .cluster-label span{color:#333;}#my-svg .cluster-label span p{background-color:transparent;}#my-svg .cluster rect{fill:#ffffde;stroke:#aaaa33;stroke-width:1px;}#my-svg .cluster text{fill:#333;}#my-svg .cluster span{color:#333;}#my-svg .nodeLabel,#my-svg .edgeLabel{color:#131300;}#my-svg .noteLabel .nodeLabel,#my-svg .noteLabel .edgeLabel{color:black;}#my-svg .edgeLabel .label rect{fill:#ECECFF;}#my-svg .label text{fill:#131300;}#my-svg .labelBkg{background:#ECECFF;}#my-svg .edgeLabel .label span{background:#ECECFF;}#my-svg .classTitle{font-weight:bolder;}#my-svg .node rect,#my-svg .node circle,#my-svg .node ellipse,#my-svg .node polygon,#my-svg .node path{fill:#ECECFF;stroke:#9370DB;stroke-width:1;}#my-svg .divider{stroke:#9370DB;stroke-width:1;}#my-svg g.clickable{cursor:pointer;}#my-svg g.classGroup rect{fill:#ECECFF;stroke:#9370DB;}#my-svg g.classGroup line{stroke:#9370DB;stroke-width:1;}#my-svg .classLabel .box{stroke:none;stroke-width:0;fill:#ECECFF;opacity:0.5;}#my-svg .classLabel .label{fill:#9370DB;font-size:10px;}#my-svg .relation{stroke:#333333;stroke-width:1;fill:none;}#my-svg .dashed-line{stroke-dasharray:3;}#my-svg .dotted-line{stroke-dasharray:1 2;}#my-svg [id$="-compositionStart"],#my-svg .composition{fill:#333333!important;stroke:#333333!important;stroke-width:1;}#my-svg [id$="-compositionEnd"],#my-svg .composition{fill:#333333!important;stroke:#333333!important;stroke-width:1;}#my-svg [id$="-dependencyStart"],#my-svg .dependency{fill:#333333!important;stroke:#333333!important;stroke-width:1;}#my-svg [id$="-dependencyEnd"],#my-svg .dependency{fill:#333333!important;stroke:#333333!important;stroke-width:1;}#my-svg [id$="-extensionStart"],#my-svg .extension{fill:transparent!important;stroke:#333333!important;stroke-width:1;}#my-svg [id$="-extensionEnd"],#my-svg .extension{fill:transparent!important;stroke:#333333!important;stroke-width:1;}#my-svg [id$="-aggregationStart"],#my-svg .aggregation{fill:transparent!important;stroke:#333333!important;stroke-width:1;}#my-svg [id$="-aggregationEnd"],#my-svg .aggregation{fill:transparent!important;stroke:#333333!important;stroke-width:1;}#my-svg [id$="-lollipopStart"],#my-svg .lollipop{fill:#ECECFF!important;stroke:#333333!important;stroke-width:1;}#my-svg [id$="-lollipopEnd"],#my-svg .lollipop{fill:#ECECFF!important;stroke:#333333!important;stroke-width:1;}#my-svg .edgeTerminals{font-size:11px;line-height:initial;}#my-svg .classTitleText{text-anchor:middle;font-size:18px;fill:#333;}#my-svg .edgeLabel[data-look="neo"]{background-color:rgba(232,232,232, 0.8);text-align:center;}#my-svg .edgeLabel[data-look="neo"] p{background-color:rgba(232,232,232, 0.8);}#my-svg .edgeLabel[data-look="neo"] rect{opacity:0.5;background-color:rgba(232,232,232, 0.8);fill:rgba(232,232,232, 0.8);}#my-svg .label-icon{display:inline-block;height:1em;overflow:visible;vertical-align:-0.125em;}#my-svg .node .label-icon path{fill:currentColor;stroke:revert;stroke-width:revert;}#my-svg .node .neo-node{stroke:#9370DB;}#my-svg [data-look="neo"].node rect,#my-svg [data-look="neo"].cluster rect,#my-svg [data-look="neo"].node polygon{stroke:#9370DB;filter:drop-shadow(1px 2px 2px rgba(185, 185, 185, 1));}#my-svg [data-look="neo"].node path{stroke:#9370DB;stroke-width:1px;}#my-svg [data-look="neo"].node .outer-path{filter:drop-shadow(1px 2px 2px rgba(185, 185, 185, 1));}#my-svg [data-look="neo"].node .neo-line path{stroke:#9370DB;filter:none;}#my-svg [data-look="neo"].node circle{stroke:#9370DB;filter:drop-shadow(1px 2px 2px rgba(185, 185, 185, 1));}#my-svg [data-look="neo"].node circle .state-start{fill:#000000;}#my-svg [data-look="neo"].icon-shape .icon{fill:#9370DB;filter:drop-shadow(1px 2px 2px rgba(185, 185, 185, 1));}#my-svg [data-look="neo"].icon-shape .icon-neo path{stroke:#9370DB;filter:drop-shadow(1px 2px 2px rgba(185, 185, 185, 1));}#my-svg :root{--mermaid-font-family:"trebuchet ms",verdana,arial,sans-serif;}</style><g><defs><marker id="my-svg_class-aggregationStart" class="marker aggregation class" refX="18" refY="7" markerWidth="190" markerHeight="240" orient="auto"><path d="M 18,7 L9,13 L1,7 L9,1 Z"/></marker></defs><defs><marker id="my-svg_class-aggregationEnd" class="marker aggregation class" refX="1" refY="7" markerWidth="20" markerHeight="28" orient="auto"><path d="M 18,7 L9,13 L1,7 L9,1 Z"/></marker></defs><defs><marker id="my-svg_class-aggregationStart-margin" class="marker aggregation class" refX="15" refY="7" markerWidth="190" markerHeight="240" orient="auto" markerUnits="userSpaceOnUse"><path d="M 18,7 L9,13 L1,7 L9,1 Z" style="stroke-width: 2;"/></marker></defs><defs><marker id="my-svg_class-aggregationEnd-margin" class="marker aggregation class" refX="1" refY="7" markerWidth="20" markerHeight="28" orient="auto" markerUnits="userSpaceOnUse"><path d="M 18,7 L9,13 L1,7 L9,1 Z" style="stroke-width: 2;"/></marker></defs><defs><marker id="my-svg_class-extensionStart" class="marker extension class" refX="18" refY="7" markerWidth="190" markerHeight="240" orient="auto" markerUnits="userSpaceOnUse"><path d="M 1,7 L18,13 V 1 Z"/></marker></defs><defs><marker id="my-svg_class-extensionEnd" class="marker extension class" refX="1" refY="7" markerWidth="20" markerHeight="28" orient="auto"><path d="M 1,1 V 13 L18,7 Z"/></marker></defs><marker id="my-svg_class-extensionStart-margin" class="marker extension class" refX="18" refY="7" markerWidth="20" markerHeight="28" orient="auto" markerUnits="userSpaceOnUse" viewBox="0 0 20 14"><polygon points="10,7 18,13 18,1" style="stroke-width: 2; stroke-dasharray: 0;"/></marker><defs><marker id="my-svg_class-extensionEnd-margin" class="marker extension class" refX="9" refY="7" markerWidth="20" markerHeight="28" orient="auto" markerUnits="userSpaceOnUse" viewBox="0 0 20 14"><polygon points="10,1 10,13 18,7" style="stroke-width: 2; stroke-dasharray: 0;"/></marker></defs><defs><marker id="my-svg_class-compositionStart" class="marker composition class" refX="18" refY="7" markerWidth="190" markerHeight="240" orient="auto"><path d="M 18,7 L9,13 L1,7 L9,1 Z"/></marker></defs><defs><marker id="my-svg_class-compositionEnd" class="marker composition class" refX="1" refY="7" markerWidth="20" markerHeight="28" orient="auto"><path d="M 18,7 L9,13 L1,7 L9,1 Z"/></marker></defs><defs><marker id="my-svg_class-compositionStart-margin" class="marker composition class" refX="15" refY="7" markerWidth="190" markerHeight="240" orient="auto" markerUnits="userSpaceOnUse"><path viewBox="0 0 15 15" d="M 18,7 L9,13 L1,7 L9,1 Z" style="stroke-width: 0;"/></marker></defs><defs><marker id="my-svg_class-compositionEnd-margin" class="marker composition class" refX="3.5" refY="7" markerWidth="20" markerHeight="28" orient="auto" markerUnits="userSpaceOnUse"><path d="M 18,7 L9,13 L1,7 L9,1 Z" style="stroke-width: 0;"/></marker></defs><defs><marker id="my-svg_class-dependencyStart" class="marker dependency class" refX="6" refY="7" markerWidth="190" markerHeight="240" orient="auto"><path d="M 5,7 L9,13 L1,7 L9,1 Z"/></marker></defs><defs><marker id="my-svg_class-dependencyEnd" class="marker dependency class" refX="13" refY="7" markerWidth="20" markerHeight="28" orient="auto"><path d="M 18,7 L9,13 L14,7 L9,1 Z"/></marker></defs><defs><marker id="my-svg_class-dependencyStart-margin" class="marker dependency class" refX="4" refY="7" markerWidth="190" markerHeight="240" orient="auto" markerUnits="userSpaceOnUse"><path d="M 5,7 L9,13 L1,7 L9,1 Z" style="stroke-width: 0;"/></marker></defs><defs><marker id="my-svg_class-dependencyEnd-margin" class="marker dependency class" refX="16" refY="7" markerWidth="20" markerHeight="28" orient="auto" markerUnits="userSpaceOnUse"><path d="M 18,7 L9,13 L14,7 L9,1 Z" style="stroke-width: 0;"/></marker></defs><defs><marker id="my-svg_class-lollipopStart" class="marker lollipop class" refX="13" refY="7" markerWidth="190" markerHeight="240" orient="auto"><circle fill="transparent" cx="7" cy="7" r="6"/></marker></defs><defs><marker id="my-svg_class-lollipopEnd" class="marker lollipop class" refX="1" refY="7" markerWidth="190" markerHeight="240" orient="auto"><circle fill="transparent" cx="7" cy="7" r="6"/></marker></defs><defs><marker id="my-svg_class-lollipopStart-margin" class="marker lollipop class" refX="13" refY="7" markerWidth="190" markerHeight="240" orient="auto" markerUnits="userSpaceOnUse"><circle fill="transparent" cx="7" cy="7" r="6" stroke-width="2"/></marker></defs><defs><marker id="my-svg_class-lollipopEnd-margin" class="marker lollipop class" refX="1" refY="7" markerWidth="190" markerHeight="240" orient="auto" markerUnits="userSpaceOnUse"><circle fill="transparent" cx="7" cy="7" r="6" stroke-width="2"/></marker></defs><g class="root"><g class="clusters"/><g class="edgePaths"><path d="M93.582,435.25L93.582,436.542C93.582,437.833,93.582,440.417,93.582,445.875C93.582,451.333,93.582,459.667,93.582,463.833L93.582,468" id="my-svg-id_Usuario_Admin_1" class="edge-thickness-normal edge-pattern-solid relation" style=";;;" data-edge="true" data-et="edge" data-id="id_Usuario_Admin_1" data-points="W3sieCI6OTMuNTgyMDMxMjUsInkiOjQxOH0seyJ4Ijo5My41ODIwMzEyNSwieSI6NDQzfSx7IngiOjkzLjU4MjAzMTI1LCJ5Ijo0Njh9XQ==" data-look="classic" marker-start="url(#my-svg_class-extensionStart)"/><path d="M93.582,128L93.582,134.167C93.582,140.333,93.582,152.667,93.582,164C93.582,175.333,93.582,185.667,93.582,190.833L93.582,196" id="my-svg-id_Pedido_Usuario_2" class="edge-thickness-normal edge-pattern-solid relation" style=";;;" data-edge="true" data-et="edge" data-id="id_Pedido_Usuario_2" data-points="W3sieCI6OTMuNTgyMDMxMjUsInkiOjEyOH0seyJ4Ijo5My41ODIwMzEyNSwieSI6MTY1fSx7IngiOjkzLjU4MjAzMTI1LCJ5IjoyMDJ9XQ==" data-look="classic" marker-end="url(#my-svg_class-dependencyEnd)"/></g><g class="edgeLabels"><g class="edgeLabel"><g class="label" data-id="id_Usuario_Admin_1" transform="translate(0, 0)"><foreignObject width="0" height="0"><div xmlns="http://www.w3.org/1999/xhtml" class="labelBkg" style="display: table-cell; white-space: nowrap; line-height: 1.5; max-width: 200px; text-align: center;"><span class="edgeLabel"></span></div></foreignObject></g></g><g class="edgeLabel" transform="translate(93.58203125, 165)"><g class="label" data-id="id_Pedido_Usuario_2" transform="translate(-35.5859375, -12)"><foreignObject width="71.171875" height="24"><div xmlns="http://www.w3.org/1999/xhtml" class="labelBkg" style="display: table-cell; white-space: nowrap; line-height: 1.5; max-width: 200px; text-align: center;"><span class="edgeLabel"><p>pertenece</p></span></div></foreignObject></g></g></g><g class="nodes"><g class="node default" id="my-svg-classId-Usuario-0" data-look="classic" transform="translate(93.58203125, 310)"><g class="basic label-container outer-path"><path d="M-85.58203125 -108 L85.58203125 -108 L85.58203125 108 L-85.58203125 108" stroke="none" stroke-width="0" fill="#ECECFF" style=""/><path d="M-85.58203125 -108 C-27.629178937309142 -108, 30.323673375381716 -108, 85.58203125 -108 M-85.58203125 -108 C-48.741970152950785 -108, -11.90190905590157 -108, 85.58203125 -108 M85.58203125 -108 C85.58203125 -29.73234837661184, 85.58203125 48.53530324677632, 85.58203125 108 M85.58203125 -108 C85.58203125 -29.34212801410723, 85.58203125 49.31574397178554, 85.58203125 108 M85.58203125 108 C37.574227657504615 108, -10.43357593499077 108, -85.58203125 108 M85.58203125 108 C18.641293857749062 108, -48.299443534501876 108, -85.58203125 108 M-85.58203125 108 C-85.58203125 53.149228128543385, -85.58203125 -1.7015437429132305, -85.58203125 -108 M-85.58203125 108 C-85.58203125 52.729998414820514, -85.58203125 -2.540003170358972, -85.58203125 -108" stroke="#9370DB" stroke-width="1.3" fill="none" stroke-dasharray="0 0" style=""/></g><g class="annotation-group text" transform="translate(0, -84)"/><g class="label-group text" transform="translate(-29.7890625, -84)"><g class="label" style="font-weight: bolder" transform="translate(0,-12)"><foreignObject width="59.578125" height="24"><div xmlns="http://www.w3.org/1999/xhtml" style="display: table-cell; white-space: nowrap; line-height: 1.5; max-width: 101px; text-align: center;"><span class="nodeLabel markdown-node-label" style=""><p>Usuario</p></span></div></foreignObject></g></g><g class="members-group text" transform="translate(-73.58203125, -36)"><g class="label" style="" transform="translate(0,-12)"><foreignObject width="107.171875" height="24"><div xmlns="http://www.w3.org/1999/xhtml" style="display: table-cell; white-space: nowrap; line-height: 1.5; max-width: 153px; text-align: center;"><span class="nodeLabel markdown-node-label" style=""><p>+nombre:string</p></span></div></foreignObject></g><g class="label" style="" transform="translate(0,12)"><foreignObject width="117.375" height="24"><div xmlns="http://www.w3.org/1999/xhtml" style="display: table-cell; white-space: nowrap; line-height: 1.5; max-width: 161px; text-align: center;"><span class="nodeLabel markdown-node-label" style=""><p>-password:string</p></span></div></foreignObject></g><g class="label" style="" transform="translate(0,36)"><foreignObject width="65.84375" height="24"><div xmlns="http://www.w3.org/1999/xhtml" style="display: table-cell; white-space: nowrap; line-height: 1.5; max-width: 115px; text-align: center;"><span class="nodeLabel markdown-node-label" style=""><p>#edad:int</p></span></div></foreignObject></g></g><g class="methods-group text" transform="translate(-73.58203125, 60)"><g class="label" style="" transform="translate(0,-12)"><foreignObject width="53.8125" height="24"><div xmlns="http://www.w3.org/1999/xhtml" style="display: table-cell; white-space: nowrap; line-height: 1.5; max-width: 107px; text-align: center;"><span class="nodeLabel markdown-node-label" style=""><p>+login()</p></span></div></foreignObject></g><g class="label" style="" transform="translate(0,12)"><foreignObject width="63.59375" height="24"><div xmlns="http://www.w3.org/1999/xhtml" style="display: table-cell; white-space: nowrap; line-height: 1.5; max-width: 115px; text-align: center;"><span class="nodeLabel markdown-node-label" style=""><p>+logout()</p></span></div></foreignObject></g></g><g class="divider" style=""><path d="M-85.58203125 -60 C-21.4047170070359 -59.99962505380332, 42.7725972359282 -59.99925010760664, 85.58203125 -59.999 M-85.58203125 -60 C-27.303563748759487 -59.99965951691816, 30.974903752481026 -59.99931903383631, 85.58203125 -59.999" stroke="#9370DB" stroke-width="1.3" fill="none" stroke-dasharray="0 0" style=""/></g><g class="divider" style=""><path d="M-85.58203125 36 C-38.028170529269985 36.00027782619801, 9.52569019146003 36.000555652396024, 85.58203125 36.001 M-85.58203125 36 C-46.145643660875514 36.00023040109596, -6.709256071751028 36.000460802191924, 85.58203125 36.001" stroke="#9370DB" stroke-width="1.3" fill="none" stroke-dasharray="0 0" style=""/></g></g><g class="node default" id="my-svg-classId-Admin-1" data-look="classic" transform="translate(93.58203125, 510)"><g class="basic label-container outer-path"><path d="M-36.890625 -42 L36.890625 -42 L36.890625 42 L-36.890625 42" stroke="none" stroke-width="0" fill="#ECECFF" style=""/><path d="M-36.890625 -42 C-13.178711084838021 -42, 10.533202830323958 -42, 36.890625 -42 M-36.890625 -42 C-18.689627711012342 -42, -0.4886304220246842 -42, 36.890625 -42 M36.890625 -42 C36.890625 -23.20215500827593, 36.890625 -4.404310016551861, 36.890625 42 M36.890625 -42 C36.890625 -25.112457568910493, 36.890625 -8.224915137820986, 36.890625 42 M36.890625 42 C7.617392993443151 42, -21.6558390131137 42, -36.890625 42 M36.890625 42 C17.85778673442637 42, -1.1750515311472611 42, -36.890625 42 M-36.890625 42 C-36.890625 19.50709676006503, -36.890625 -2.985806479869943, -36.890625 -42 M-36.890625 42 C-36.890625 8.88639935597866, -36.890625 -24.22720128804268, -36.890625 -42" stroke="#9370DB" stroke-width="1.3" fill="none" stroke-dasharray="0 0" style=""/></g><g class="annotation-group text" transform="translate(0, -18)"/><g class="label-group text" transform="translate(-24.890625, -18)"><g class="label" style="font-weight: bolder" transform="translate(0,-12)"><foreignObject width="49.78125" height="24"><div xmlns="http://www.w3.org/1999/xhtml" style="display: table-cell; white-space: nowrap; line-height: 1.5; max-width: 94px; text-align: center;"><span class="nodeLabel markdown-node-label" style=""><p>Admin</p></span></div></foreignObject></g></g><g class="members-group text" transform="translate(-24.890625, 30)"/><g class="methods-group text" transform="translate(-24.890625, 60)"/><g class="divider" style=""><path d="M-36.890625 6 C-15.9778963192547 6.000283442320112, 4.934832361490599 6.000566884640223, 36.890625 6.001 M-36.890625 6 C-18.0345997042795 6.0002555666283195, 0.8214255914409989 6.00051113325664, 36.890625 6.001" stroke="#9370DB" stroke-width="1.3" fill="none" stroke-dasharray="0 0" style=""/></g><g class="divider" style=""><path d="M-36.890625 24 C-18.1286697600137 24.00025429164239, 0.6332854799725993 24.000508583284777, 36.890625 24.001 M-36.890625 24 C-12.60733694536857 24.000329125462834, 11.675951109262861 24.000658250925667, 36.890625 24.001" stroke="#9370DB" stroke-width="1.3" fill="none" stroke-dasharray="0 0" style=""/></g></g><g class="node default" id="my-svg-classId-Pedido-2" data-look="classic" transform="translate(93.58203125, 68)"><g class="basic label-container outer-path"><path d="M-68.703125 -60 L68.703125 -60 L68.703125 60 L-68.703125 60" stroke="none" stroke-width="0" fill="#ECECFF" style=""/><path d="M-68.703125 -60 C-37.04524470911926 -60, -5.387364418238526 -60, 68.703125 -60 M-68.703125 -60 C-40.880446074326954 -60, -13.057767148653902 -60, 68.703125 -60 M68.703125 -60 C68.703125 -34.5354641471979, 68.703125 -9.070928294395806, 68.703125 60 M68.703125 -60 C68.703125 -21.479645445613762, 68.703125 17.040709108772475, 68.703125 60 M68.703125 60 C17.02678490434959 60, -34.64955519130082 60, -68.703125 60 M68.703125 60 C40.6363335773695 60, 12.569542154738997 60, -68.703125 60 M-68.703125 60 C-68.703125 15.522683441642599, -68.703125 -28.954633116714803, -68.703125 -60 M-68.703125 60 C-68.703125 15.832243130930756, -68.703125 -28.335513738138488, -68.703125 -60" stroke="#9370DB" stroke-width="1.3" fill="none" stroke-dasharray="0 0" style=""/></g><g class="annotation-group text" transform="translate(0, -36)"/><g class="label-group text" transform="translate(-26.671875, -36)"><g class="label" style="font-weight: bolder" transform="translate(0,-12)"><foreignObject width="53.34375" height="24"><div xmlns="http://www.w3.org/1999/xhtml" style="display: table-cell; white-space: nowrap; line-height: 1.5; max-width: 94px; text-align: center;"><span class="nodeLabel markdown-node-label" style=""><p>Pedido</p></span></div></foreignObject></g></g><g class="members-group text" transform="translate(-56.703125, 12)"><g class="label" style="" transform="translate(0,-12)"><foreignObject width="86.734375" height="24"><div xmlns="http://www.w3.org/1999/xhtml" style="display: table-cell; white-space: nowrap; line-height: 1.5; max-width: 133px; text-align: center;"><span class="nodeLabel markdown-node-label" style=""><p>+fecha:Date</p></span></div></foreignObject></g></g><g class="methods-group text" transform="translate(-56.703125, 60)"/><g class="divider" style=""><path d="M-68.703125 -12 C-38.16641177474933 -11.999777763287877, -7.629698549498656 -11.999555526575753, 68.703125 -11.999 M-68.703125 -12 C-41.06514616857679 -11.999798859376256, -13.427167337153577 -11.999597718752511, 68.703125 -11.999" stroke="#9370DB" stroke-width="1.3" fill="none" stroke-dasharray="0 0" style=""/></g><g class="divider" style=""><path d="M-68.703125 36 C-35.52808597797101 36.000241437627636, -2.3530469559420197 36.000482875255265, 68.703125 36.001 M-68.703125 36 C-36.49066071146653 36.000234432307764, -4.278196422933064 36.00046886461553, 68.703125 36.001" stroke="#9370DB" stroke-width="1.3" fill="none" stroke-dasharray="0 0" style=""/></g></g></g></g></g><defs><filter id="my-svg-drop-shadow" height="130%" width="130%"><feDropShadow dx="4" dy="4" stdDeviation="0" flood-opacity="0.06" flood-color="#000000"/></filter></defs><defs><filter id="my-svg-drop-shadow-small" height="150%" width="150%"><feDropShadow dx="2" dy="2" stdDeviation="0" flood-opacity="0.06" flood-color="#000000"/></filter></defs></svg>